<?xml version="1.0" standalone="no"?><!DOCTYPE svg PUBLIC "-//W3C//DTD SVG 1.1//EN" "http://www.w3.org/Graphics/SVG/1.1/DTD/svg11.dtd"><svg t="1640243337068" class="icon" viewBox="0 0 1024 1024" version="1.1" xmlns="http://www.w3.org/2000/svg" p-id="4514" xmlns:xlink="http://www.w3.org/1999/xlink" width="128" height="128"><defs><style type="text/css"></style></defs><path d="M812.0832 932.7104H214.016c-73.6256 0-133.3248-59.6992-133.3248-133.3248V218.9312c0-73.6256 59.6992-133.3248 133.3248-133.3248h168.704c44.544 0 84.0192 28.7744 97.6384 71.2192l23.296 72.6016a102.5024 102.5024 0 0 0 97.6384 71.2192h210.8416c73.6256 0 133.3248 59.6992 133.3248 133.3248v365.3632c-0.0512 73.6768-59.7504 133.376-133.376 133.376z" fill="#FFAC3E" p-id="4515"></path><path d="M787.8656 524.8512H238.2848c-48.3328 0-87.5008-39.168-87.5008-87.5008V287.5904c0-73.6256 59.6992-133.3248 133.3248-133.3248h457.9328c73.6256 0 133.3248 59.6992 133.3248 133.3248v149.76c0 48.3328-39.168 87.5008-87.5008 87.5008z" fill="#FFAC3E" p-id="4516"></path><path d="M812.0832 300.6464h-210.8416c-44.544 0-84.0192-28.7744-97.6384-71.2192l-23.296-72.6016c-0.3072-0.8704-0.6656-1.7408-0.9216-2.56H284.1088c-73.6256 0-133.3248 59.6992-133.3248 133.3248v149.76c0 48.3328 39.168 87.5008 87.5008 87.5008h549.5808c48.3328 0 87.5008-39.168 87.5008-87.5008V316.6208a132.64896 132.64896 0 0 0-63.2832-15.9744z" fill="#FF7C0E" p-id="4517"></path><path d="M548.8128 522.0352H233.7792c-22.6304 0-40.96-18.3296-40.96-40.96s18.3296-40.96 40.96-40.96h315.0336c22.6304 0 40.96 18.3296 40.96 40.96s-18.3296 40.96-40.96 40.96zM765.5424 733.7984H233.7792c-22.6304 0-40.96-18.3296-40.96-40.96s18.3296-40.96 40.96-40.96h531.8144c22.6304 0 40.96 18.3296 40.96 40.96s-18.3808 40.96-41.0112 40.96z" fill="#FFFFFF" p-id="4518"></path></svg>