<?xml version="1.0" standalone="no"?><!DOCTYPE svg PUBLIC "-//W3C//DTD SVG 1.1//EN" "http://www.w3.org/Graphics/SVG/1.1/DTD/svg11.dtd"><svg t="1643023478359" class="icon" viewBox="0 0 1024 1024" version="1.1" xmlns="http://www.w3.org/2000/svg" p-id="3184" xmlns:xlink="http://www.w3.org/1999/xlink" width="300" height="300"><defs><style type="text/css"></style></defs><path d="M512.2 689.4c103.7-59.8 99.1-115 95.1-130.8C602 538 584.6 523 565.8 523c-14.2 0-27.4 8.8-37.1 24.8-3.5 5.7-9.7 9.3-16.4 9.3-6.7 0-12.9-3.5-16.4-9.3-9.8-16.2-22.7-24.8-37.1-24.8-18.8 0-36.3 15-41.5 35.6-4.2 15.8-8.8 71 94.9 130.8zM881.8 193.9h-23v69.4c0 35.6-29 64.6-64.6 64.6-35.6 0-64.6-29-64.6-64.6v-69.4H576.8v69.4c0 35.6-29 64.6-64.6 64.6-35.6 0-64.6-29-64.6-64.6v-69.4H294.8v69.4c0 35.6-29 64.6-64.6 64.6-35.6 0-64.6-29-64.6-64.6v-69.4h-23c-21.3 0-38.7 17.4-38.7 38.7v130.9h816.6V232.6c0-21.4-17.4-38.7-38.7-38.7z" fill="#FDB9D0" p-id="3185"></path><path d="M881.8 155.5h-23v-19.9c0-35.6-29-64.6-64.6-64.6-35.6 0-64.6 29-64.6 64.6v19.9H576.8v-19.9c0-35.6-29-64.6-64.6-64.6-35.6 0-64.6 29-64.6 64.6v19.9H294.8v-19.9c0-35.6-29-64.6-64.6-64.6-35.6 0-64.6 29-64.6 64.6v19.9h-23c-42.5 0-77.1 34.6-77.1 77.1v644.1c0 42.5 34.6 77.1 77.1 77.1h739.1c42.5 0 77.1-34.6 77.1-77.1V232.6c0.1-42.5-34.5-77.1-77-77.1z m38.7 208H103.9V232.6c0-21.3 17.4-38.7 38.7-38.7h23v69.4c0 35.6 29 64.6 64.6 64.6 35.6 0 64.6-29 64.6-64.6v-69.4h152.9v69.4c0 35.6 29 64.6 64.6 64.6 35.6 0 64.6-29 64.6-64.6v-69.4h152.9v69.4c0 35.6 29 64.6 64.6 64.6 35.6 0 64.6-29 64.6-64.6v-69.4h23c21.3 0 38.7 17.4 38.7 38.7v130.9zM768.1 135.6c0-14.4 11.7-26.2 26.2-26.2 14.4 0 26.1 11.7 26.1 26.2v127.7c0 14.4-11.7 26.1-26.1 26.1-14.4 0-26.2-11.7-26.2-26.1V135.6z m-282 0c0-14.4 11.7-26.2 26.2-26.2 14.4 0 26.2 11.7 26.2 26.2v127.7c0 14.4-11.7 26.1-26.2 26.1-14.4 0-26.2-11.7-26.2-26.1V135.6z m-282.1 0c0-14.4 11.7-26.2 26.2-26.2 14.4 0 26.2 11.7 26.2 26.2v127.7c0 14.4-11.7 26.1-26.2 26.1-14.4 0-26.2-11.7-26.2-26.1V135.6z m716.5 741.1c0 21.3-17.4 38.7-38.7 38.7H142.7c-21.3 0-38.7-17.4-38.7-38.7V401.9h816.6v474.8z" fill="#3EBAC4" p-id="3186"></path><path d="M179.6 535.2h127.7c10.6 0 19.2-8.6 19.2-19.2s-8.6-19.2-19.2-19.2H179.6c-10.6 0-19.2 8.6-19.2 19.2s8.6 19.2 19.2 19.2zM179.6 816.7h127.7c10.6 0 19.2-8.6 19.2-19.2s-8.6-19.2-19.2-19.2H179.6c-10.6 0-19.2 8.6-19.2 19.2s8.6 19.2 19.2 19.2zM179.6 676h127.7c10.6 0 19.2-8.6 19.2-19.2s-8.6-19.2-19.2-19.2H179.6c-10.6 0-19.2 8.6-19.2 19.2S169 676 179.6 676zM717.1 535.2h127.8c10.6 0 19.2-8.6 19.2-19.2s-8.6-19.2-19.2-19.2H717.1c-10.6 0-19.2 8.6-19.2 19.2s8.6 19.2 19.2 19.2zM717.1 816.7h127.8c10.6 0 19.2-8.6 19.2-19.2s-8.6-19.2-19.2-19.2H717.1c-10.6 0-19.2 8.6-19.2 19.2s8.6 19.2 19.2 19.2zM717.1 676h127.8c10.6 0 19.2-8.6 19.2-19.2s-8.6-19.2-19.2-19.2H717.1c-10.6 0-19.2 8.6-19.2 19.2s8.6 19.2 19.2 19.2zM576.1 778.2H448.4c-10.6 0-19.2 8.6-19.2 19.2s8.6 19.2 19.2 19.2h127.7c10.6 0 19.2-8.6 19.2-19.2s-8.6-19.2-19.2-19.2zM503 728.3c2.9 1.6 6 2.3 9.2 2.3 3.2 0 6.3-0.8 9.2-2.3 49.4-26.9 85-57.4 105.7-90.5 23.5-37.5 22.4-68.9 17.4-88.7-9.7-38-42.1-64.5-78.8-64.5-19.8 0-38.4 8-53.5 22.6-15.1-14.6-33.7-22.6-53.5-22.6-36.7 0-69.1 26.5-78.7 64.5-5 19.8-6.1 51.2 17.4 88.7 20.7 33.1 56.2 63.5 105.6 90.5z m-85.8-169.7c5.3-20.6 22.7-35.6 41.5-35.6 14.4 0 27.3 8.6 37.1 24.8 3.5 5.7 9.7 9.3 16.4 9.3 6.7 0 12.9-3.5 16.4-9.3 9.7-16 22.9-24.8 37.1-24.8 18.8 0 36.3 15 41.5 35.6 4 15.8 8.6 71-95.1 130.8-103.6-59.8-99-115-94.9-130.8z" fill="#3EBAC4" p-id="3187"></path></svg>