<?xml version="1.0" standalone="no"?><!DOCTYPE svg PUBLIC "-//W3C//DTD SVG 1.1//EN" "http://www.w3.org/Graphics/SVG/1.1/DTD/svg11.dtd"><svg t="1638881404049" class="icon" viewBox="0 0 1024 1024" version="1.1" xmlns="http://www.w3.org/2000/svg" p-id="1818" width="128" height="128" xmlns:xlink="http://www.w3.org/1999/xlink"><defs><style type="text/css"></style></defs><path d="M755.43 109.04c81.76 0 148.07 65.87 148.07 147.16v190.68c1.52 8.23-0.34 16.73-5.16 23.59-4.82 6.86-12.21 11.51-20.51 12.92l-5.08 0.38h-88.83c-8.31 0.03-16.3-3.23-22.19-9.05l-133.22-133.6-99.04 345.25c-3.17 11.26-12.43 19.81-23.96 22.12l-6.24 3.4a31.386 31.386 0 0 1-24.46-11.91L346.72 539.81l-46.76 97.92c-5.28 10.84-16.38 17.68-28.49 17.57h-108.2v110.33c0 43.8 35.72 79.26 79.72 79.26h512.44c41.41 0 75.47-31.4 79.34-71.57l0.33-7.68v-113.2h68.35v113.24c0 81.24-66.25 147.1-148.01 147.1h-512.4c-78.09 0.01-142.76-60.29-147.74-137.77l-0.28-9.33v-141.5c0-17.24 14.02-31.18 31.3-31.18h125.32l60.29-125.09a31.261 31.261 0 0 1 19.33-16.46l5.19-1.1c10.65-1.31 21.22 2.99 27.88 11.36l121.84 152.26 97.33-339.65c2.54-8.78 8.83-15.92 17.11-19.65l5.08-1.81c10.76-3.02 22.33 0.01 30.2 7.91l161.7 160.77h37.54v-165.4c0-41.17-31.58-75.03-71.99-78.88l-7.73-0.33H243.1c-41.46 0-75.52 31.4-79.39 71.57l-0.33 7.68v226.36H95.03V256.26c0-81.24 66.25-147.1 148.01-147.1h512.44l-0.05-0.12z m0 0" p-id="1819"></path></svg>